<?xml version="1.0" standalone="no"?>
<!DOCTYPE svg PUBLIC "-//W3C//DTD SVG 20010904//EN"
 "http://www.w3.org/TR/2001/REC-SVG-20010904/DTD/svg10.dtd">
<svg version="1.0" xmlns="http://www.w3.org/2000/svg"
 width="640.000000pt" height="640.000000pt" viewBox="0 0 640.000000 640.000000"
 preserveAspectRatio="xMidYMid meet">
<metadata>
Created by potrace 1.14, written by Peter Selinger 2001-2017
</metadata>
<g transform="translate(0.000000,640.000000) scale(0.100000,-0.100000)"
fill="#000000" stroke="none">
<path d="M3130 3195 l0 -2906 963 4 c938 3 964 4 1048 24 459 113 817 473 999
1008 114 333 128 627 45 951 -144 563 -516 1017 -944 1150 -34 10 -61 21 -61
24 0 3 17 14 37 25 73 39 189 133 266 214 216 230 369 579 407 925 39 363
-147 869 -423 1150 -134 136 -273 225 -442 283 -153 52 -174 53 -1066 53
l-829 0 0 -2905z m1813 2722 c229 -71 407 -208 550 -424 209 -314 294 -686
228 -999 -94 -450 -363 -817 -694 -944 -166 -65 -138 -63 -979 -67 l-768 -4 0
1236 0 1236 788 -3 787 -3 88 -28z m-53 -2577 c0 -5 26 -10 58 -10 244 -1 534
-151 730 -380 239 -279 392 -660 409 -1015 22 -497 -249 -1065 -630 -1319
-106 -70 -195 -111 -317 -144 l-95 -27 -882 -3 -883 -3 0 1446 0 1445 713 1
c391 1 741 5 777 9 99 11 120 11 120 0z"/>
<path d="M1090 5440 l0 -630 -360 0 -361 0 3 -147 3 -148 357 -3 357 -2 4
-1563 c4 -1691 1 -1608 57 -1829 84 -327 267 -584 515 -723 86 -49 232 -100
341 -121 179 -34 487 -14 665 43 l57 18 -40 135 c-23 74 -42 137 -44 138 -1 2
-43 -6 -93 -17 -411 -97 -758 -8 -946 241 -61 80 -127 218 -160 332 -55 194
-55 187 -55 1831 l0 1515 648 2 647 3 3 148 3 147 -651 0 -650 0 -2 628 -3
627 -147 3 -148 3 0 -631z"/>
</g>
</svg>
